<svg xmlns="http://www.w3.org/2000/svg" width="439.695" height="451.826" viewBox="0 0 439.695 451.826"><defs><style>.a,.f,.k,.l,.n,.o,.u,.v{fill:none;}.a{stroke:#e1e7f4;stroke-width:13px;}.a,.l,.u,.v{stroke-linecap:round;}.a,.b,.f,.k,.l,.n,.o{stroke-miterlimit:10;}.b,.s{fill:#f8faff;}.b{stroke:#a8b7e2;stroke-width:3px;}.c{fill:#9ef482;}.d{fill:#ffc95e;}.e{fill:#d44945;}.f,.k,.l{stroke:#000;}.f{stroke-width:7px;}.g{fill:#e2ecf9;}.h{fill:#ffc75d;}.i{fill:#ffa79b;}.j{fill:#54c7e6;}.l{stroke-width:5px;}.m{fill:#a8b7e2;}.n{stroke:#d44945;stroke-width:2px;}.o{stroke:#687ccd;}.p{fill:#96aaed;}.q{fill:#fff;}.r{fill:#9a2929;}.t{fill:#687ccd;}.u,.v{stroke:#dce4f7;stroke-linejoin:round;}.u{stroke-width:4px;}</style></defs><g transform="translate(-155.999 -152.517)"><line class="a" x1="275.643" transform="translate(162.499 597.843)"/><g transform="translate(224.616 154.017)"><path class="b" d="M0,0H340.04a0,0,0,0,1,0,0V235.669a6.429,6.429,0,0,1-6.429,6.429H6.428A6.428,6.428,0,0,1,0,235.669V0A0,0,0,0,1,0,0Z" transform="translate(0 7.49)"/><path class="b" d="M6.429,0H333.611a6.428,6.428,0,0,1,6.428,6.428v6.835a0,0,0,0,1,0,0H0a0,0,0,0,1,0,0V6.429A6.429,6.429,0,0,1,6.429,0Z" transform="translate(0.123)"/><path class="c" d="M802.74,162.955a3.373,3.373,0,1,1-3.373-3.373A3.373,3.373,0,0,1,802.74,162.955Z" transform="translate(-495.302 -156.381)"/><path class="d" d="M821.589,162.955a3.374,3.374,0,1,1-3.374-3.373A3.373,3.373,0,0,1,821.589,162.955Z" transform="translate(-503.31 -156.381)"/><path class="e" d="M840.438,162.955a3.374,3.374,0,1,1-3.374-3.373A3.374,3.374,0,0,1,840.438,162.955Z" transform="translate(-511.318 -156.381)"/></g><g transform="translate(238.595 419.996)"><line class="f" y1="130.975" x2="12.458" transform="translate(18.487 45.393)"/><line class="f" y1="130.975" x2="12.458" transform="translate(61.107 45.393)"/><line class="f" x1="12.458" y1="130.975" transform="translate(171.262 45.393)"/><line class="f" x1="12.458" y1="130.975" transform="translate(128.642 45.393)"/><path class="e" d="M297.5,685.784h0a4.39,4.39,0,0,0,4.39,4.39H495.315a4.391,4.391,0,0,0,4.39-4.39h0a4.39,4.39,0,0,0-4.39-4.39H301.888A4.39,4.39,0,0,0,297.5,685.784Z" transform="translate(-297.498 -644.05)"/><g transform="translate(40.743)"><path d="M447.923,674.644H370.277a1.947,1.947,0,0,0-1.941,1.941h0a1.947,1.947,0,0,0,1.941,1.941h77.646a1.947,1.947,0,0,0,1.941-1.941h0A1.947,1.947,0,0,0,447.923,674.644Z" transform="translate(-368.336 -641.182)"/><path d="M477.551,616.465H428.791a2.2,2.2,0,0,0-2.161,1.784l-6.866,35.56h53.243l6.7-34.726A2.2,2.2,0,0,0,477.551,616.465Z" transform="translate(-390.185 -616.465)"/><path class="g" d="M478.552,623.536H432.334l-5.176,27.546h46.218Z" transform="translate(-393.326 -619.469)"/></g></g><g transform="translate(189.336 354.256)"><path class="h" d="M218.614,722.541l.529,7.995.661,9.962q.043.612.138,1.208a12.513,12.513,0,0,0,.6,2.289c.069.184.144.368.219.546s.155.351.242.523c0,.006,0,.006.006.012.063.132.127.265.2.4.109.219.23.431.362.644.2.316.4.627.621.926a9.8,9.8,0,0,0,.725.891c.253.288.523.564.8.823.138.132.282.259.426.38.288.247.592.483.9.708.155.109.322.219.489.322s.322.2.483.293.334.19.506.276.345.173.518.253c.3.138.61.265.926.38.115.046.236.086.357.127a11.85,11.85,0,0,0,2.22.506c.1.017.213.029.322.04.092.012.19.023.282.029.351.029.707.046,1.07.046h4.624l2.1,49.55h21.166l3.491-49.55,1.145-16.242a12.46,12.46,0,0,0-12.429-13.332Z" transform="translate(-214.726 -595.79)"/><path d="M252.318,722.541h-33.7l.529,7.995.661,9.962q.043.612.138,1.208a12.513,12.513,0,0,0,.6,2.289c.069.184.144.368.219.546s.155.351.242.523c0,.006,0,.006.006.012.063.132.127.265.2.4.109.219.23.431.362.644.2.316.4.627.621.926a9.8,9.8,0,0,0,.725.891c.253.288.523.564.8.823.138.132.282.259.426.38.288.247.592.483.9.708.155.109.322.219.489.322s.322.2.483.293.334.19.506.276.345.173.518.253c.3.138.61.265.926.38.115.046.236.086.357.127a11.85,11.85,0,0,0,2.22.506c.1.017.213.029.322.04.092.012.19.023.282.029.351.029.707.046,1.07.046h4.624l.158,3.734,25.946,5.521.652-9.255,1.145-16.242A12.46,12.46,0,0,0,252.318,722.541Z" transform="translate(-214.726 -595.79)"/><path class="i" d="M267.258,548.128l-.927,13.218a3.039,3.039,0,0,1-.841,2.011,3.335,3.335,0,0,1-3.443.67c-2.455-.646-6.9-3.731-9.35-5.53a3.2,3.2,0,0,1-1.2-3.388l4.487-21.771,9.025-12.017,13.252,2.5-1.211,19.106a6.21,6.21,0,0,1-7.462,5.688Z" transform="translate(-228.651 -510.303)"/><path d="M277,507.314h0a6.469,6.469,0,0,0-7.269-5.081L250.7,505.019a7.713,7.713,0,0,0-6.412,5.959l-.326,1.466h0a11.238,11.238,0,0,0-8.8,13.3,15.182,15.182,0,0,0,12.615,11.938l5.833.278,8.5-9.059-.738-.123a3.934,3.934,0,0,1-3.261-4.341l.225-1.911a2.468,2.468,0,0,1,3.721-1.828l2.271,1.363s.856.185,3.294-.74A11.8,11.8,0,0,0,277,507.314Z" transform="translate(-221.655 -502.164)"/><path class="j" d="M234.477,579.821A22.621,22.621,0,0,0,211.9,603.937l3.839,57.971.608,9.175a21.846,21.846,0,0,0,21.8,20.4h46.113l-7.081-82.218a32.206,32.206,0,0,0-32.087-29.443Z" transform="translate(-211.854 -535.156)"/><path class="h" d="M218.616,722.541l1.191,17.956q.043.612.138,1.208a12.42,12.42,0,0,0,12.28,10.41h61.565l2.1,49.55h21.54l3.054-54.214a23.577,23.577,0,0,0-23.541-24.91Z" transform="translate(-214.727 -595.79)"/><path class="e" d="M289.074,909.124l-15.15-8.656.443-6.287H255.416l.265,6.315.5,11.8h32.048A1.7,1.7,0,0,0,289.074,909.124Z" transform="translate(-230.361 -668.711)"/><path class="i" d="M352.966,860.111l.834,19.6h19.607l1.1-19.6Z" transform="translate(-271.805 -654.236)"/><path class="e" d="M389.851,909.1l-16.185-8.633.357-6.287H354.416l.253,6.085.512,12.032h33.871A1.7,1.7,0,0,0,389.851,909.1Z" transform="translate(-272.421 -668.711)"/><path class="i" d="M253.966,860.111l.834,19.6h18.951l1.38-19.6Z" transform="translate(-229.745 -654.236)"/><path d="M218.614,722.541l.529,7.995,58.963-7.995Z" transform="translate(-214.726 -595.79)"/><path class="k" d="M375.707,852.394H355.741" transform="translate(-272.984 -650.958)"/><path class="k" d="M275.325,850.465H256.1" transform="translate(-230.651 -650.138)"/><path class="h" d="M354.856,903.9l.512,12.032h33.871a1.7,1.7,0,0,0,.8-3.2L373.853,904.1s-8.623,1.662-10.874.183c-2.85-1.872-5.023-2.035-7.611-.557A1.928,1.928,0,0,1,354.856,903.9Z" transform="translate(-272.608 -672.345)"/><path class="h" d="M255.876,903.552l.5,11.8h32.048a1.7,1.7,0,0,0,.845-3.175l-15.15-8.656s-5.326,2.586-9.578-.372C261.255,900.865,256.777,900.563,255.876,903.552Z" transform="translate(-230.557 -671.766)"/><path d="M309.521,610.84a32.208,32.208,0,0,0-20.558-27.308l-.984,7.479,19.6,48.067a16.012,16.012,0,0,0,4.857,5.552Z" transform="translate(-244.195 -536.733)"/><path class="j" d="M314.894,613.176l-13.487,12.383-30.144-45.518,7.7-.04a32.216,32.216,0,0,1,29.523,18.963Z" transform="translate(-237.094 -535.232)"/><path class="i" d="M381.436,594.7l-.2,3.261a3.473,3.473,0,0,1-.838,2.054h0a19.053,19.053,0,0,1-10.048,6.074l-6.568,1.547L341.67,634.657A9.12,9.12,0,0,1,327,633.915l-3.324-5.021,13.487-12.383,17.749-14.419,1.53-4.6a15.266,15.266,0,0,1,3.336-5.6l1.173-1.248a9.263,9.263,0,0,1,5.1-2.778,1.152,1.152,0,0,1,.132-.011.726.726,0,0,1,.707.88c-.1.487-.238,1.078-.365,1.669a4.852,4.852,0,0,1-2.845,3.439h0a.141.141,0,0,0-.012.254l.522.6a5.7,5.7,0,0,0,5.14,1.883l6.32-.951a15.337,15.337,0,0,0,3.957-1.157l.747-.333A.67.67,0,0,1,381.436,594.7Z" transform="translate(-259.36 -538.568)"/><path class="k" d="M297.135,584.874a18.064,18.064,0,0,0-1.233,18.089" transform="translate(-246.771 -537.303)"/><path class="k" d="M250.948,580.809a11.381,11.381,0,0,0,13.98.269" transform="translate(-228.463 -535.576)"/><path class="k" d="M315.862,653.115q-.139,18.517,1.33,37" transform="translate(-256.036 -566.295)"/><path class="k" d="M320.123,725.169c-1.464,5.429,2.789,11.032,7.951,13.264s10.991,2.027,16.612,2.191a7.075,7.075,0,0,1,3.71.818c1.867,1.218,2.2,3.768,2.346,5.993q1.7,26.16,1.884,52.388" transform="translate(-257.728 -596.907)"/><path class="k" d="M223.693,749.59h9.613" transform="translate(-216.884 -607.282)"/><path class="k" d="M272.55,749.59h16.269" transform="translate(-237.641 -607.282)"/><path class="k" d="M284.256,784.259q-.47,21.082-2.073,42.117" transform="translate(-241.733 -622.011)"/><path class="k" d="M319.642,641.062a74.8,74.8,0,0,0,11.911-10.137" transform="translate(-257.647 -556.868)"/><path class="k" d="M278.97,539.632a9.83,9.83,0,0,1,.133-1.373.993.993,0,0,1,.445-.79,1.009,1.009,0,0,1,.864.053,2.392,2.392,0,0,1,1.089,1.344,6.879,6.879,0,0,1,.455,3.413,2.086,2.086,0,0,0-.491-1.4c-.385-.369-1.215-.4-1.444.057" transform="translate(-240.368 -517.131)"/><path class="k" d="M284.537,534.74a5.619,5.619,0,0,1,1.832,3.09" transform="translate(-242.733 -516.004)"/><path class="k" d="M279.064,565.167q.175-1.428.35-2.857" transform="translate(-240.408 -527.717)"/></g><g transform="translate(172.69 425.542)"><path class="l" d="M190.432,863.057l12.542-75.762a9.907,9.907,0,0,1,9.706-8.508l21.673.223a9.92,9.92,0,0,1,9.517,8.507l12.57,75.931" transform="translate(-186.107 -690.973)"/><path class="l" d="M258.258,714.4h-21.52c-14.754,0-27.161-12.376-28.843-28.769l-5.84-56.921c-.152-1.486-8.016-2.6-9.182-2.6h0c-1.4,0-10.141,1.589-9.957,3.378l5.76,56.14c1.682,16.394,14.09,28.769,28.843,28.769h36.618" transform="translate(-182.912 -626.108)"/><rect class="j" width="84.249" height="9.202" transform="translate(7.67 83.686)"/><line class="l" x1="16.967" transform="translate(5.849 49.441)"/><line class="l" x1="16.967" transform="translate(4.123 37.219)"/><line class="l" x1="16.967" transform="translate(2.973 24.997)"/><line class="l" x1="16.967" transform="translate(1.823 12.775)"/><path class="l" d="M238.785,863.057l12.542-75.762a9.908,9.908,0,0,1,9.707-8.508l21.673.223a9.92,9.92,0,0,1,9.517,8.507l12.569,75.931" transform="translate(-206.649 -690.973)"/></g><rect class="h" width="145.124" height="102.855" transform="translate(398.21 326.981)"/><rect width="62.117" height="4.108" transform="translate(398.21 425.727)"/><path class="i" d="M664.611,606.06s-7.21-2.773-12.2-2.773-9.983,8.874-12.2,10.537,3.328,2.773,6.1,2.218,8.319-5.546,8.319-5.546,3.882,6.1,9.984,6.1S664.611,606.06,664.611,606.06Z" transform="translate(-204.285 -190.87)"/><path d="M598.863,603.089H575.015V561.822h10.066a2.821,2.821,0,0,1,2.715,2.055Z" transform="translate(-176.805 -173.254)"/><path d="M708.138,490.766l-13.311,6.655s-18.1,1.869-14.974-11.092c3.882-16.084,17.748-7.765,17.748-7.765s3.882-4.991,13.865-2.218c7.651,2.125,8.874,17.193,8.874,17.193a9.007,9.007,0,0,1,16.084,4.992s11.092-9.984,18.3,3.327c6.735,12.433-10.537,18.857-10.537,18.857l-22.739-6.1Z" transform="translate(-221.191 -136.583)"/><path class="m" d="M768.846,593.7,758.9,549.224a12.167,12.167,0,0,0-12.6-9.49l-20.167,1.2a13.89,13.89,0,0,0-10.5,5.844l-7.076,10a5.73,5.73,0,0,0,3.622,8.94l3.33.624-4.345,27.35Z" transform="translate(-233.092 -163.861)"/><path d="M760.185,562.947l-5.272-3.053-17.748,22.185-20.579,3.106-2.715,17.086h32.835Z" transform="translate(-235.798 -172.435)"/><path class="m" d="M738.476,571.5l8.6-16.913a9.889,9.889,0,0,0-9.636-14.336L715.182,542.1l.554,26.622-32.722,10.537.554,14.646,47.7-8.545Z" transform="translate(-222.688 -164.074)"/><path class="i" d="M740.834,522.318l-9.428-13.311.651-.93a7.6,7.6,0,0,0-.25-9.047h0a3.545,3.545,0,0,0-5.437-.165l-1.62,1.822-6.1-4.437-14.42,6.1,4.923,11.739a5.233,5.233,0,0,0,7.422,2.52l2.63-1.5,4.991,8.319s2.11,6.051,6.656,5.546C735.842,528.418,740.834,522.318,740.834,522.318Z" transform="translate(-231.701 -145.396)"/><path class="k" d="M715.151,511.038a12.9,12.9,0,0,1,.378,3.512" transform="translate(-236.341 -151.679)"/><path class="k" d="M720.933,519.211a6.257,6.257,0,0,0,3.895-1.926,3.017,3.017,0,0,1-.755,4.158" transform="translate(-238.798 -154.333)"/><path class="k" d="M731.9,525.259a10.481,10.481,0,0,0,3.939-3.866" transform="translate(-243.455 -156.078)"/><path class="k" d="M746.868,503.78a1.933,1.933,0,0,0-3.006-.846,3.04,3.04,0,0,0-.688,3.423,7.609,7.609,0,0,0,2.325,2.876c-.01-.646-.56-1.162-.689-1.8a1.494,1.494,0,0,1,1.7-1.67" transform="translate(-248.146 -148.067)"/><path class="k" d="M741.4,549.811a5.835,5.835,0,0,0,5.507,2.115,12.58,12.58,0,0,0,5.595-2.519,30.946,30.946,0,0,0,3.938-3.35" transform="translate(-247.492 -166.556)"/><path class="k" d="M742.247,563.726l-7.624,14.327a2.505,2.505,0,0,1-2.044,1.559l-11.029,3.1" transform="translate(-239.06 -174.063)"/><path class="k" d="M770.159,546.914a8.053,8.053,0,0,1,6.633-4.111" transform="translate(-259.711 -165.174)"/><path class="k" d="M724.137,585.208a10.734,10.734,0,0,1,7.386.457" transform="translate(-240.159 -182.999)"/><path class="k" d="M787.723,581.4q1.719,13.937,4.284,27.751" transform="translate(-267.173 -181.571)"/><path class="k" d="M690.07,608.432a50.562,50.562,0,0,1,.508,11.641" transform="translate(-225.686 -193.056)"/><path class="k" d="M647.8,618.9l3.71-4.253c1.232-1.413,2.66-2.929,4.528-3.079" transform="translate(-207.728 -194.386)"/><path class="k" d="M643.017,617.4l5.05-5.4a13.016,13.016,0,0,1,3.139-2.708" transform="translate(-205.695 -193.42)"/><rect class="n" width="145.124" height="102.855" transform="translate(391.554 333.636)"/><line class="n" y1="22.924" x2="27.176" transform="translate(364.378 391.526)"/><g transform="translate(371.408 343.026)"><path class="j" d="M548.94,488.989h30.841a3.184,3.184,0,0,0,3.175-3.175h0a3.184,3.184,0,0,0-3.175-3.175H548.94a3.184,3.184,0,0,0-3.175,3.175h0A3.184,3.184,0,0,0,548.94,488.989Z" transform="translate(-535.787 -482.639)"/><path class="j" d="M530.457,511.167h43.087a2.047,2.047,0,0,0,2.041-2.041h0a2.047,2.047,0,0,0-2.041-2.041H530.457a2.047,2.047,0,0,0-2.041,2.041h0A2.047,2.047,0,0,0,530.457,511.167Z" transform="translate(-528.416 -493.025)"/><path class="j" d="M530.457,524.967h43.087a2.047,2.047,0,0,0,2.041-2.041h0a2.047,2.047,0,0,0-2.041-2.041H530.457a2.047,2.047,0,0,0-2.041,2.041h0A2.047,2.047,0,0,0,530.457,524.967Z" transform="translate(-528.416 -498.888)"/><path class="j" d="M530.457,538.767h43.087a2.047,2.047,0,0,0,2.041-2.041h0a2.047,2.047,0,0,0-2.041-2.041H530.457a2.047,2.047,0,0,0-2.041,2.041h0A2.047,2.047,0,0,0,530.457,538.767Z" transform="translate(-528.416 -504.75)"/></g><rect class="j" width="109.035" height="53.982" transform="translate(396.93 185.897)"/><g transform="translate(404.117 191.154)"><rect class="o" width="43.206" height="42.993"/><line class="o" x2="43.206" y2="42.993"/><line class="p" x1="43.206" y2="42.993"/></g><g transform="translate(458.194 192.585)"><path class="q" d="M705.723,227.762H682.651a3.354,3.354,0,0,1-3.344-3.344h0a3.354,3.354,0,0,1,3.344-3.344h23.072a3.354,3.354,0,0,1,3.344,3.344h0A3.354,3.354,0,0,1,705.723,227.762Z" transform="translate(-679.307 -221.074)"/><path class="q" d="M714.9,251.121H681.457a2.156,2.156,0,0,1-2.15-2.149h0a2.156,2.156,0,0,1,2.15-2.15H714.9a2.156,2.156,0,0,1,2.15,2.15h0A2.156,2.156,0,0,1,714.9,251.121Z" transform="translate(-679.307 -232.013)"/><path class="q" d="M714.9,265.657H681.457a2.156,2.156,0,0,1-2.15-2.15h0a2.156,2.156,0,0,1,2.15-2.149H714.9a2.156,2.156,0,0,1,2.15,2.149h0A2.156,2.156,0,0,1,714.9,265.657Z" transform="translate(-679.307 -238.188)"/><path class="q" d="M714.9,280.192H681.457a2.156,2.156,0,0,1-2.15-2.149h0a2.156,2.156,0,0,1,2.15-2.15H714.9a2.156,2.156,0,0,1,2.15,2.15h0A2.156,2.156,0,0,1,714.9,280.192Z" transform="translate(-679.307 -244.364)"/></g><g transform="translate(196.885 178.278)"><line class="n" x2="28.747" y2="106.486" transform="translate(112.124 126.728)"/><rect class="i" width="171.273" height="121.388" transform="translate(12.571 11.832)"/><rect class="n" width="171.273" height="121.388" transform="translate(0)"/><path class="h" d="M352.4,318.415l-3.124,37.45-12.785-35.941a21.278,21.278,0,0,0-19.422-14.138l-32.931-.968A20.24,20.24,0,0,0,264.194,319.1L246.836,375.56H375.691L370.7,321.188Z" transform="translate(-234.265 -242.341)"/><path class="r" d="M327.836,280.422l12.571-40.671,28.1,1.849-2.419,20.969a11.359,11.359,0,0,1-13.885,9.755l-3.292-.774L347.8,283.011s-5.361,7.765-11.462,6.656S327.836,280.422,327.836,280.422Z" transform="translate(-268.677 -214.702)"/><path class="s" d="M477.622,279.608v7.461c-5.8-.415-13.9.122-13.441,6.481.707,9.841,4.952,14.762,13.441,15.582,0,4.53,3.167,8.2,7.074,8.2h14.149c3.907,0,7.074-3.672,7.074-8.2V279.608Zm-9.2,15.583c.39-3.614,5.069-3.246,9.2-2.187v10C473.081,302.287,467.869,300.352,468.425,295.191Z" transform="translate(-326.595 -231.635)"/><path d="M347.378,245.75l-3.528-1.719a3.094,3.094,0,0,0-4.4,2.239l-.274,1.533a4.748,4.748,0,0,0,3.951,5.527h0l-11.092,8.134-2.98-21.519a4.221,4.221,0,0,1,1.71-4l4.6-3.32h0a9.539,9.539,0,0,1,10-8.765l25.259,1.307a5.97,5.97,0,0,1,5.226,8.2h0a10.7,10.7,0,0,1-11.428,6.576L349.412,237.8Z" transform="translate(-269.178 -207.945)"/><path d="M507.964,398.311V358.358H479.156a6.27,6.27,0,0,0-5.789,3.86l-15.031,36.093Z" transform="translate(-324.12 -265.091)"/><path class="r" d="M430.372,310.544l2.239-13.435a11.105,11.105,0,0,1,7.352-8.679l10.985-2.049a1.788,1.788,0,0,1,2.286,2.224l-.19,1.274c-1.055,3.376-4.905,3.283-8.394,3.865h0a.274.274,0,0,0-.057.525l4.636,1.855,9.472-.431a2.8,2.8,0,0,1,2.924,2.6h0c.215,3.01-2.811,3.233-5.6,4.394l-1.992.83h0c-.328,3.605-1.726,9.137-5.288,9.785l-.074.014Z" transform="translate(-312.239 -234.47)"/><path class="k" d="M390.071,262.74q.592,1.586,1.183,3.173a4.432,4.432,0,0,1,.367,1.5c.008,1.674-1.739,2.734-3.254,3.447" transform="translate(-294.394 -224.468)"/><path class="k" d="M352.9,265.209c-.255-.813,1.024-1.394,1.721-.905a2.888,2.888,0,0,1,.9,2.3,3.207,3.207,0,0,1-.529,2.347,2.549,2.549,0,0,0-2.935-1.439" transform="translate(-278.969 -225.057)"/><path class="k" d="M376.924,283.54a9.587,9.587,0,0,1-7.016-5.555" transform="translate(-286.551 -230.945)"/><path class="k" d="M359.578,292.227a10.435,10.435,0,0,1-4.857-3.064" transform="translate(-280.099 -235.694)"/><path class="k" d="M325.983,314.5l2.827,6.414a7.078,7.078,0,0,0,.9,1.635,5.643,5.643,0,0,0,2.672,1.639,13.713,13.713,0,0,0,8.8-.065,7.5,7.5,0,0,0,1.887-.927,10.362,10.362,0,0,0,2.276-2.543l3.229-4.526" transform="translate(-267.89 -246.459)"/><path class="k" d="M431.292,333.558l16.357,4.354" transform="translate(-312.63 -254.555)"/><path class="k" d="M464.747,305.46a3.307,3.307,0,0,0-3.495,2.951,1.737,1.737,0,0,0,.573,1.537,2.108,2.108,0,0,0,.882.318,10.8,10.8,0,0,0,4.5-.128" transform="translate(-325.356 -242.611)"/><path class="k" d="M450.979,299.944a17.029,17.029,0,0,1,.117,5.15,5.753,5.753,0,0,1-2.761,4.16" transform="translate(-319.871 -240.274)"/><path class="k" d="M459.2,313.877c-.327-.3-.851-.14-1.26.04a5.466,5.466,0,0,0-1.712,1.02,1.857,1.857,0,0,0-.558,1.82c.3.921,1.428,1.237,2.389,1.367a30.044,30.044,0,0,0,5.274.247" transform="translate(-322.959 -246.122)"/><path class="k" d="M457.026,320.555a4.927,4.927,0,0,0-2.606.7,1.7,1.7,0,0,0-.46,2.38,2.379,2.379,0,0,0,1.468.575,32.053,32.053,0,0,0,6.087.26" transform="translate(-322.124 -249.031)"/><path class="k" d="M305.076,360.4q-1.078,14.5-3.109,28.911,23.869,3.957,47.582,8.792" transform="translate(-257.687 -265.96)"/><path class="k" d="M302.265,307.771a16.628,16.628,0,0,1,3.824,6.653,25.467,25.467,0,0,1,.72,3.449,54.26,54.26,0,0,1,.112,15.261" transform="translate(-257.814 -243.599)"/><path class="k" d="M393.352,319.169q4.2,30.184,5.452,60.68" transform="translate(-296.511 -248.442)"/><path class="k" d="M424.642,404.579a53.719,53.719,0,0,0,.634-9.751q2.188,6.139,3.845,12.45" transform="translate(-309.805 -280.585)"/></g><g transform="translate(244.514 298.422)"><g transform="translate(187.149 129.537)"><g transform="translate(24.421)"><circle class="e" cx="9.276" cy="9.276" r="9.276"/><path class="s" d="M691.645,643.282a7.494,7.494,0,0,0-7.511,0c-1.69,1.22-2.441,2.91.47,3,1.879.06.845-1.69.845-1.69a6.576,6.576,0,0,1,4.882,0s-1.034,1.75.845,1.69C694.086,646.192,693.335,644.5,691.645,643.282Z" transform="translate(-678.613 -635.392)"/></g><g transform="translate(48.841)"><circle class="t" cx="9.276" cy="9.276" r="9.276"/><g transform="translate(4.276 6.046)"><rect class="s" width="6.14" height="5.79" rx="1.099"/><path class="s" d="M739.722,646.464l-2.387-2.387a.45.45,0,0,1,0-.636l2.387-2.387a.45.45,0,0,1,.768.318v4.774A.45.45,0,0,1,739.722,646.464Z" transform="translate(-730.49 -640.864)"/></g></g><circle class="t" cx="9.276" cy="9.276" r="9.276"/><g transform="translate(6.17 5.038)"><path class="s" d="M648.507,652.88v-1.861a.46.46,0,0,1,.459-.459h0a.46.46,0,0,1,.46.459v1.861a.46.46,0,0,1-.46.46h0A.46.46,0,0,1,648.507,652.88Z" transform="translate(-645.86 -643.95)"/><path class="s" d="M649.2,646.654v.551a1.5,1.5,0,0,1-1.5,1.5h-1.374a1.5,1.5,0,0,1-1.5-1.5v-.551a.46.46,0,0,0-.46-.46h0a.46.46,0,0,0-.46.46v.72a2.251,2.251,0,0,0,2.251,2.251h1.711a2.251,2.251,0,0,0,2.251-2.251v-.72a.46.46,0,0,0-.46-.46h0A.46.46,0,0,0,649.2,646.654Z" transform="translate(-643.905 -642.095)"/><g transform="translate(1.549)"><path class="s" d="M649.713,642.314v-2.222a1.024,1.024,0,0,0-1.024-1.023h-1.067a1.024,1.024,0,0,0-1.024,1.023v2.222Z" transform="translate(-646.599 -639.068)"/><path class="s" d="M646.6,646.16v.906a1.023,1.023,0,0,0,1.024,1.023h1.067a1.023,1.023,0,0,0,1.024-1.023v-.906Z" transform="translate(-646.599 -642.081)"/></g></g></g><g transform="translate(34.311)"><circle class="e" cx="13.033" cy="13.033" r="13.033"/><path class="s" d="M389.936,423.313a10.526,10.526,0,0,0-10.552,0c-2.375,1.715-3.43,4.089.659,4.221,2.641.085,1.187-2.374,1.187-2.374a9.245,9.245,0,0,1,6.859,0s-1.453,2.459,1.187,2.374C393.365,427.4,392.31,425.028,389.936,423.313Z" transform="translate(-371.626 -412.228)"/></g><g transform="translate(68.622 0)"><circle class="t" cx="13.033" cy="13.033" r="13.033"/><g transform="translate(6.008 8.495)"><rect class="s" width="8.627" height="8.134" rx="1.099"/><path class="s" d="M457.484,427.785l-3.354-3.354a.633.633,0,0,1,0-.894l3.354-3.354a.632.632,0,0,1,1.08.447v6.707A.633.633,0,0,1,457.484,427.785Z" transform="translate(-444.513 -419.917)"/></g></g><g transform="translate(0 0)"><circle class="t" cx="13.033" cy="13.033" r="13.033"/><g transform="translate(8.669 7.078)"><path class="s" d="M329.327,436.8v-2.615a.646.646,0,0,1,.646-.646h0a.646.646,0,0,1,.646.646V436.8a.646.646,0,0,1-.646.646h0A.646.646,0,0,1,329.327,436.8Z" transform="translate(-325.608 -424.253)"/><path class="s" d="M330.3,428.051v.774a2.107,2.107,0,0,1-2.107,2.107h-1.931a2.107,2.107,0,0,1-2.107-2.107v-.774a.646.646,0,0,0-.646-.647h0a.646.646,0,0,0-.646.647v1.01a3.163,3.163,0,0,0,3.163,3.163h2.4a3.163,3.163,0,0,0,3.163-3.163v-1.01a.646.646,0,0,0-.646-.647h0A.646.646,0,0,0,330.3,428.051Z" transform="translate(-322.861 -421.647)"/><g transform="translate(2.177)"><path class="s" d="M331.022,421.954v-3.122a1.438,1.438,0,0,0-1.438-1.438h-1.5a1.438,1.438,0,0,0-1.438,1.438v3.122Z" transform="translate(-326.646 -417.394)"/><path class="s" d="M326.646,427.358v1.273a1.438,1.438,0,0,0,1.438,1.438h1.5a1.438,1.438,0,0,0,1.438-1.438v-1.273Z" transform="translate(-326.646 -421.627)"/></g></g></g></g><g transform="translate(251.977 326.242)"><path class="j" d="M422.258,513.566V453.458l-13.3,14.66H320.765v45.447Z" transform="translate(-320.765 -453.458)"/><rect class="s" width="83.577" height="3.665" rx="1.833" transform="translate(93.094 50.578) rotate(180)"/><rect class="s" width="83.577" height="3.665" rx="1.833" transform="translate(93.094 42.759) rotate(180)"/><rect class="s" width="83.577" height="3.665" rx="1.833" transform="translate(93.094 34.941) rotate(180)"/><rect class="s" width="64.188" height="3.665" rx="1.833" transform="translate(93.094 27.122) rotate(180)"/></g><g transform="translate(158.851 158.97)"><circle class="u" cx="8.124" cy="8.124" r="8.124" transform="translate(26.849 76.58) rotate(-80.741)"/><circle class="u" cx="8.124" cy="8.124" r="8.124" transform="matrix(0.772, -0.636, 0.636, 0.772, 364.162, 303.924)"/><circle class="u" cx="8.124" cy="8.124" r="8.124" transform="translate(393.34 44.357) rotate(-45)"/><circle class="v" cx="10.712" cy="10.712" r="10.712" transform="translate(0 128.834) rotate(-76.609)"/><circle class="u" cx="10.712" cy="10.712" r="10.712" transform="translate(412.604 8.133)"/><circle class="u" cx="10.712" cy="10.712" r="10.712" transform="translate(273.57 325.372) rotate(-45)"/><path class="v" d="M191.745,424.158l9.062-10.937" transform="translate(-172.826 -269.092)"/><path class="v" d="M215.446,436.283l3.31-5.557" transform="translate(-182.895 -276.529)"/><path class="v" d="M194.3,175.952l6.66,7.761" transform="translate(-173.913 -168.289)"/><path class="v" d="M219.158,162.629l4.543,7.7" transform="translate(-184.472 -162.629)"/><path class="v" d="M901.907,384.394h8.874" transform="translate(-474.535 -256.845)"/><path class="v" d="M899.946,430.837l10.005,2.113" transform="translate(-473.702 -276.576)"/><path class="v" d="M890.336,463.465l8.874,8.874" transform="translate(-469.619 -290.438)"/><path class="v" d="M869.09,615.907l7.893,2.986" transform="translate(-460.593 -355.202)"/><path class="v" d="M865.219,637.08l8.648,9.089" transform="translate(-458.948 -364.197)"/><path class="v" d="M203.482,586.211a21.008,21.008,0,0,1,9.036-12.174" transform="translate(-177.812 -337.414)"/><path class="v" d="M203.8,568.829a6.124,6.124,0,0,1,4.413-4.494" transform="translate(-177.95 -333.292)"/></g></g></svg>